<svg xmlns="http://www.w3.org/2000/svg" viewBox="0 0 190.47 25.01"><title>logo-white</title><rect x="34.39" y="8.75" width="7.68" height="7.68" style="fill:#fff"/><rect x="42.96" y="17.24" width="7.68" height="7.68" style="fill:#fff"/><rect x="42.96" y="12.5" width="7.68" height="3.93" style="fill:#fff"/><path d="M42.07,17.24v7.68h0a7.68,7.68,0,0,1-7.68-7.68h7.68Z" style="fill:#fff"/><path d="M42.16,7.68H34.47A7.68,7.68,0,0,1,42.16,0h0Z" style="fill:#fff"/><path d="M43.05,0h7.68a7.68,7.68,0,0,1-7.68,7.68h0Z" style="fill:#fff"/><path d="M24.92,7.68H17.24A7.68,7.68,0,0,1,24.92,0h0Z" style="fill:#fff"/><path d="M24.92,8.66v7.68h0a7.68,7.68,0,0,1-7.68-7.68h7.68Z" style="fill:#fff"/><path d="M25.81,16.34V8.66h0a7.68,7.68,0,0,1,7.68,7.68H25.81Z" style="fill:#fff"/><path d="M25.81,0h7.68a7.68,7.68,0,0,1-7.68,7.68h0Z" style="fill:#fff"/><path d="M24.92,24.92H17.24a7.68,7.68,0,0,1,7.68-7.68h0Z" style="fill:#fff"/><path d="M25.81,17.24h7.68a7.68,7.68,0,0,1-7.68,7.68h0Z" style="fill:#fff"/><rect y="17.33" width="7.68" height="7.68" style="fill:#fff"/><rect y="8.75" width="7.68" height="7.68" style="fill:#fff"/><path d="M7.68,7.68H0A7.68,7.68,0,0,1,7.68,0h0Z" style="fill:#fff"/><path d="M8.57,0h7.68A7.68,7.68,0,0,1,8.57,7.68h0Z" style="fill:#fff"/><path d="M8.57,8.66h7.68a7.67,7.67,0,0,1-7.68,7.68h0Z" style="fill:#fff"/><path d="M69.79,19a5.67,5.67,0,0,1-2.12-.41,5.5,5.5,0,0,1-1.81-1.18L67,16.05a4.63,4.63,0,0,0,1.33.89,3.56,3.56,0,0,0,1.5.34,2.2,2.2,0,0,0,1.41-.38,1.3,1.3,0,0,0,.36-1.58,1.34,1.34,0,0,0-.35-.41,3.71,3.71,0,0,0-.53-.32l-.67-.3-1.5-.65a5.4,5.4,0,0,1-.79-.41,3.7,3.7,0,0,1-.71-.6,3,3,0,0,1-.51-.82,2.9,2.9,0,0,1-.19-1.06,2.63,2.63,0,0,1,.28-1.21,3.05,3.05,0,0,1,.75-1,3.64,3.64,0,0,1,1.16-.65,4.76,4.76,0,0,1,3.3.14,4.87,4.87,0,0,1,1.52,1l-1,1.23a4.57,4.57,0,0,0-1.09-.68A3.06,3.06,0,0,0,70,9.37a2,2,0,0,0-1.24.34,1.08,1.08,0,0,0-.47.94,1,1,0,0,0,.14.54,1.43,1.43,0,0,0,.38.4,3.28,3.28,0,0,0,.56.31l.65.28,1.48.61a5.65,5.65,0,0,1,.88.47,3.14,3.14,0,0,1,.69.61,2.93,2.93,0,0,1,.46.81,3.15,3.15,0,0,1,.16,1.06A3,3,0,0,1,73.43,17a3.2,3.2,0,0,1-.77,1,4,4,0,0,1-1.24.7A4.85,4.85,0,0,1,69.79,19Z" style="fill:#fff"/><path d="M76.34,18.76V10.6h1.58l.13,1.11h.07a6.15,6.15,0,0,1,1.12-.93,2.54,2.54,0,0,1,1.37-.38,2.48,2.48,0,0,1,1.44.38,2.37,2.37,0,0,1,.82,1.08,6.89,6.89,0,0,1,1.22-1,2.56,2.56,0,0,1,1.41-.41,2.2,2.2,0,0,1,1.91.84,4,4,0,0,1,.62,2.4v5.12H86.1V13.89a2.46,2.46,0,0,0-.31-1.43,1.08,1.08,0,0,0-.94-.42,2.56,2.56,0,0,0-1.71,1v5.7H81.23V13.89a2.46,2.46,0,0,0-.31-1.43A1.11,1.11,0,0,0,80,12a2.56,2.56,0,0,0-1.71,1v5.7Z" style="fill:#fff"/><path d="M93.17,19a2.43,2.43,0,0,1-1.75-.65,2.35,2.35,0,0,1-.66-1.74A2.45,2.45,0,0,1,91,15.41a2.27,2.27,0,0,1,.87-.87,6,6,0,0,1,1.49-.62,14.83,14.83,0,0,1,2.17-.38,3.1,3.1,0,0,0-.09-.61,1.35,1.35,0,0,0-.25-.51,1.12,1.12,0,0,0-.45-.35,1.83,1.83,0,0,0-.7-.12,3.06,3.06,0,0,0-1.18.23,7.8,7.8,0,0,0-1.12.56l-.7-1.28a9.9,9.9,0,0,1,1.53-.75,5.25,5.25,0,0,1,1.83-.31,2.83,2.83,0,0,1,2.29.9,4,4,0,0,1,.76,2.62v4.84H95.9l-.14-.89H95.7a6,6,0,0,1-1.18.78A2.91,2.91,0,0,1,93.17,19Zm.61-1.49a1.74,1.74,0,0,0,.91-.24,4.54,4.54,0,0,0,.87-.66V14.74a8,8,0,0,0-1.39.27,3.89,3.89,0,0,0-.92.37,1.43,1.43,0,0,0-.5.47,1.16,1.16,0,0,0-.15.57.93.93,0,0,0,.34.8A1.4,1.4,0,0,0,93.78,17.47Z" style="fill:#fff"/><path d="M100.6,18.76V10.6h1.58l.14,1.44h.06a3.53,3.53,0,0,1,1.05-1.22,2.33,2.33,0,0,1,2.19-.26l-.33,1.67a2.34,2.34,0,0,0-.4-.1,2.81,2.81,0,0,0-.45,0,1.75,1.75,0,0,0-1,.37,2.88,2.88,0,0,0-.92,1.3v5Z" style="fill:#fff"/><path d="M110.51,19a3,3,0,0,1-1.2-.21,2.06,2.06,0,0,1-.8-.61,2.37,2.37,0,0,1-.45-.93,5,5,0,0,1-.14-1.21V12.11h-1.16V10.68L108,10.6l.23-2.23h1.6V10.6h2.08v1.51h-2.08V16c0,1,.38,1.43,1.15,1.43a1.7,1.7,0,0,0,.44-.05,1.57,1.57,0,0,0,.4-.13l.34,1.41a6.35,6.35,0,0,1-.76.21A4.39,4.39,0,0,1,110.51,19Z" style="fill:#fff"/><path d="M118.8,18.76V7.89h3.47a7.54,7.54,0,0,1,1.56.14,3.74,3.74,0,0,1,1.23.45,2.13,2.13,0,0,1,.81.82,2.47,2.47,0,0,1,.29,1.26,2.71,2.71,0,0,1-.4,1.45,2.05,2.05,0,0,1-1.11.92V13a2.91,2.91,0,0,1,1.49.84,2.49,2.49,0,0,1,.59,1.74,3,3,0,0,1-.32,1.41,2.79,2.79,0,0,1-.87,1,3.62,3.62,0,0,1-1.32.59,6.78,6.78,0,0,1-1.67.19Zm1.92-6.38h1.39a2.59,2.59,0,0,0,1.65-.42,1.37,1.37,0,0,0,.51-1.11,1.22,1.22,0,0,0-.54-1.13,2.94,2.94,0,0,0-1.59-.34h-1.42Zm0,4.89h1.63a3.3,3.3,0,0,0,1.85-.44,1.55,1.55,0,0,0,.65-1.36,1.35,1.35,0,0,0-.63-1.25,3.51,3.51,0,0,0-1.87-.4h-1.63Z" style="fill:#fff"/><path d="M131.82,19a2.2,2.2,0,0,1-1.92-.84,4.09,4.09,0,0,1-.59-2.4V10.6h1.91v4.87a2.53,2.53,0,0,0,.3,1.43,1.1,1.1,0,0,0,1,.42,1.65,1.65,0,0,0,.94-.27,4.09,4.09,0,0,0,.87-.86V10.6h1.92v8.16h-1.57l-.15-1.19h-.05a4.69,4.69,0,0,1-1.15,1A2.73,2.73,0,0,1,131.82,19Z" style="fill:#fff"/><path d="M140.43,9.17a1.24,1.24,0,0,1-.85-.3,1,1,0,0,1-.33-.78,1,1,0,0,1,.33-.79,1.2,1.2,0,0,1,.85-.31,1.19,1.19,0,0,1,.85.31,1,1,0,0,1,.33.79,1,1,0,0,1-.33.78A1.23,1.23,0,0,1,140.43,9.17Zm-1,9.59V10.6h1.91v8.16Z" style="fill:#fff"/><path d="M146.52,19a1.62,1.62,0,0,1-1.45-.61,2.94,2.94,0,0,1-.41-1.68V7h1.91v9.75a.72.72,0,0,0,.13.49.4.4,0,0,0,.28.14h.13l.17,0,.25,1.43A2.57,2.57,0,0,1,146.52,19Z" style="fill:#fff"/><path d="M152.85,19a3,3,0,0,1-2.45-1.12,4.92,4.92,0,0,1-.91-3.15,5.11,5.11,0,0,1,.3-1.8,4.06,4.06,0,0,1,.77-1.34,3.36,3.36,0,0,1,1.11-.85,2.9,2.9,0,0,1,1.28-.3,2.61,2.61,0,0,1,1.18.24,4.39,4.39,0,0,1,1,.66L155,10V7H157V18.76h-1.58l-.14-.88h-.06a4.31,4.31,0,0,1-1,.77A2.68,2.68,0,0,1,152.85,19Zm.47-1.58a2.27,2.27,0,0,0,1.71-.91V12.66a2.84,2.84,0,0,0-.84-.53,2.33,2.33,0,0,0-.82-.15,1.66,1.66,0,0,0-1.35.7,3.18,3.18,0,0,0-.55,2,3.52,3.52,0,0,0,.48,2A1.55,1.55,0,0,0,153.32,17.38Z" style="fill:#fff"/><path d="M161.17,9.17a1.23,1.23,0,0,1-.85-.3,1,1,0,0,1-.33-.78,1,1,0,0,1,.33-.79,1.19,1.19,0,0,1,.85-.31,1.2,1.2,0,0,1,.85.31,1,1,0,0,1,.33.79,1,1,0,0,1-.33.78A1.24,1.24,0,0,1,161.17,9.17Zm-1,9.59V10.6h1.92v8.16Z" style="fill:#fff"/><path d="M165.39,18.76V10.6H167l.14,1.1h.06a6.53,6.53,0,0,1,1.19-.92,2.9,2.9,0,0,1,1.49-.38,2.18,2.18,0,0,1,1.91.84,4.09,4.09,0,0,1,.6,2.4v5.12h-1.91V13.89a2.56,2.56,0,0,0-.3-1.43,1.12,1.12,0,0,0-1-.42,1.72,1.72,0,0,0-.94.26,6,6,0,0,0-.92.76v5.7Z" style="fill:#fff"/><path d="M178.38,22.37a6.31,6.31,0,0,1-1.35-.13,3.52,3.52,0,0,1-1.08-.4,2.12,2.12,0,0,1-.7-.66,1.74,1.74,0,0,1,0-1.89,2.75,2.75,0,0,1,.86-.79v-.07a1.65,1.65,0,0,1-.52-.53,1.53,1.53,0,0,1-.21-.83,1.46,1.46,0,0,1,.28-.88,2.7,2.7,0,0,1,.62-.64v-.06a2.86,2.86,0,0,1-.74-.88,2.46,2.46,0,0,1-.33-1.28,2.77,2.77,0,0,1,.27-1.25,2.71,2.71,0,0,1,.71-.92,3,3,0,0,1,1-.57,3.86,3.86,0,0,1,1.23-.19,3.31,3.31,0,0,1,.64.06,3.81,3.81,0,0,1,.56.14h2.93V12h-1.5a2.07,2.07,0,0,1,.33.59,2.22,2.22,0,0,1,.13.79,2.79,2.79,0,0,1-.24,1.2,2.54,2.54,0,0,1-.65.86,3,3,0,0,1-1,.54,4,4,0,0,1-1.22.18,3.51,3.51,0,0,1-.55-.05,2.39,2.39,0,0,1-.56-.17,1.75,1.75,0,0,0-.29.34.74.74,0,0,0-.11.44.63.63,0,0,0,.29.55,1.87,1.87,0,0,0,1,.2h1.45A4.2,4.2,0,0,1,182,18a1.66,1.66,0,0,1,.76,1.54,2.21,2.21,0,0,1-.31,1.13,2.69,2.69,0,0,1-.87.91,4.66,4.66,0,0,1-1.37.61A6.75,6.75,0,0,1,178.38,22.37Zm.3-1.24a2.87,2.87,0,0,0,1.61-.4,1.1,1.1,0,0,0,.6-.92.64.64,0,0,0-.37-.65,2.77,2.77,0,0,0-1.07-.16h-1.12a4.38,4.38,0,0,1-1.11-.12,1.36,1.36,0,0,0-.63,1.08,1,1,0,0,0,.55.86A3.28,3.28,0,0,0,178.68,21.13Zm-.2-6.16a1.36,1.36,0,0,0,1-.42,1.66,1.66,0,0,0,.42-1.22,1.65,1.65,0,0,0-.41-1.19,1.32,1.32,0,0,0-1-.43,1.35,1.35,0,0,0-1,.42,1.61,1.61,0,0,0-.42,1.2,1.66,1.66,0,0,0,.42,1.22A1.35,1.35,0,0,0,178.48,15Z" style="fill:#fff"/><path d="M187.3,19a4.68,4.68,0,0,1-1.68-.32,5.55,5.55,0,0,1-1.42-.81l.9-1.23a5.71,5.71,0,0,0,1.09.68,2.85,2.85,0,0,0,1.17.24,1.42,1.42,0,0,0,1-.28.89.89,0,0,0,.32-.7.72.72,0,0,0-.15-.45,1.52,1.52,0,0,0-.4-.34,3.64,3.64,0,0,0-.56-.27l-.64-.26a7.93,7.93,0,0,1-.81-.35,3,3,0,0,1-.74-.48,2.24,2.24,0,0,1-.53-.66,1.78,1.78,0,0,1-.21-.89,2.18,2.18,0,0,1,.8-1.76,3.24,3.24,0,0,1,2.17-.68,3.73,3.73,0,0,1,1.53.3,5.62,5.62,0,0,1,1.19.68l-.89,1.16a4.06,4.06,0,0,0-.87-.5,2.23,2.23,0,0,0-.92-.19,1.37,1.37,0,0,0-.91.25.85.85,0,0,0-.29.64.69.69,0,0,0,.14.43,1.51,1.51,0,0,0,.38.31,3.47,3.47,0,0,0,.54.24l.64.24c.27.1.55.21.83.34a3.46,3.46,0,0,1,.76.47,2.15,2.15,0,0,1,.54.69,2.12,2.12,0,0,1,.21,1,2.38,2.38,0,0,1-.21,1,2.19,2.19,0,0,1-.6.79,2.9,2.9,0,0,1-1,.54A4.1,4.1,0,0,1,187.3,19Z" style="fill:#fff"/></svg>
