<svg xmlns="http://www.w3.org/2000/svg" viewBox="0 0 192.03 24.06"><title>logo-white</title><rect x="33.08" y="8.42" width="7.39" height="7.39" style="fill:#fff"/><rect x="41.33" y="16.58" width="7.39" height="7.39" style="fill:#fff"/><rect x="41.33" y="12.03" width="7.39" height="3.78" style="fill:#fff"/><path d="M40.47,16.58V24h0a7.39,7.39,0,0,1-7.39-7.39h7.39Z" style="fill:#fff"/><path d="M40.56,7.39H33.17A7.39,7.39,0,0,1,40.56,0h0Z" style="fill:#fff"/><path d="M41.42,0h7.39a7.39,7.39,0,0,1-7.39,7.39h0Z" style="fill:#fff"/><path d="M24,7.39H16.58A7.39,7.39,0,0,1,24,0h0Z" style="fill:#fff"/><path d="M24,8.33v7.39h0a7.39,7.39,0,0,1-7.39-7.39H24Z" style="fill:#fff"/><path d="M24.83,15.72V8.33h0a7.39,7.39,0,0,1,7.39,7.39H24.83Z" style="fill:#fff"/><path d="M24.83,0h7.39a7.39,7.39,0,0,1-7.39,7.39h0Z" style="fill:#fff"/><path d="M24,24H16.58A7.39,7.39,0,0,1,24,16.58h0Z" style="fill:#fff"/><path d="M24.83,16.58h7.39A7.39,7.39,0,0,1,24.83,24h0Z" style="fill:#fff"/><rect y="16.67" width="7.39" height="7.39" style="fill:#fff"/><rect y="8.42" width="7.39" height="7.39" style="fill:#fff"/><path d="M7.39,7.39H0A7.39,7.39,0,0,1,7.39,0h0Z" style="fill:#fff"/><path d="M8.25,0h7.39A7.39,7.39,0,0,1,8.25,7.39h0Z" style="fill:#fff"/><path d="M8.25,8.33h7.39a7.39,7.39,0,0,1-7.39,7.39h0Z" style="fill:#fff"/><path d="M64.24,14.84h1.94a1.87,1.87,0,0,0,2,1.63c1.12,0,1.84-.64,1.84-1.51s-.66-1.21-1.58-1.47l-1.38-.38c-2.37-.61-2.79-2-2.79-3,0-1.95,1.72-3.21,3.75-3.21a3.3,3.3,0,0,1,3.6,3.31H69.73a1.74,1.74,0,0,0-3.44-.13c0,.31.1,1,1.36,1.28l1.32.35c1.72.48,3,1.41,3,3.17,0,2-1.68,3.33-3.84,3.33C65.83,18.21,64.24,16.69,64.24,14.84Z" style="fill:#fff"/><path d="M86.46,13.86v4.19H84.62V14c0-1.2-.63-1.79-1.49-1.79-1.07,0-1.75.8-1.67,2.15v3.69H79.59V14c0-1.2-.62-1.79-1.42-1.79a1.66,1.66,0,0,0-1.73,1.91v3.93H74.58V10.58h1.86v1.28a2.24,2.24,0,0,1,2.22-1.44,2.52,2.52,0,0,1,2.42,1.47,2.74,2.74,0,0,1,2.51-1.47C85.47,10.42,86.46,11.68,86.46,13.86Z" style="fill:#fff"/><path d="M97,10.58v7.47H95.09V17a3,3,0,0,1-2.48,1.17,3.69,3.69,0,0,1-3.68-3.9,3.67,3.67,0,0,1,3.67-3.89,3,3,0,0,1,2.49,1.15v-1Zm-1.89,3.71a2.14,2.14,0,0,0-2.16-2.14,2.08,2.08,0,0,0-2.1,2.14,2.13,2.13,0,1,0,4.26,0Z" style="fill:#fff"/><path d="M105.17,10.67l-.36,1.76a2.42,2.42,0,0,0-1.09-.27c-1.22,0-1.89,1.19-1.89,3.28v2.61H100V10.58h1.85v1.6A2.2,2.2,0,0,1,104,10.42,2.68,2.68,0,0,1,105.17,10.67Z" style="fill:#fff"/><path d="M111.32,12.07h-1.59v6h-1.85v-6h-1.35V10.58h1.35V7.82h1.85v2.76h1.59Z" style="fill:#fff"/><path d="M126.57,14.92a3.13,3.13,0,0,1-3.4,3.13h-4.62V7h4.29A2.82,2.82,0,0,1,126,9.86a2.26,2.26,0,0,1-1.44,2.3A2.69,2.69,0,0,1,126.57,14.92ZM120.5,8.77v2.7h2.26A1.2,1.2,0,0,0,124,10.13a1.21,1.21,0,0,0-1.26-1.36Zm4.1,6a1.56,1.56,0,0,0-1.68-1.6H120.5v3.19h2.37A1.58,1.58,0,0,0,124.6,14.72Z" style="fill:#fff"/><path d="M136.25,10.58v7.47h-1.86V16.88a2.61,2.61,0,0,1-2.32,1.35c-1.92,0-3-1.28-3-3.46V10.58h1.85v4a1.59,1.59,0,0,0,1.56,1.81,1.79,1.79,0,0,0,1.9-1.92v-3.9Z" style="fill:#fff"/><path d="M139,7.94a1.17,1.17,0,0,1,1.22-1.14,1.14,1.14,0,1,1,0,2.27A1.18,1.18,0,0,1,139,7.94Zm.29,2.64h1.86v7.47h-1.86Z" style="fill:#fff"/><path d="M144.12,6.58H146V18.05h-1.85Z" style="fill:#fff"/><path d="M156.55,6.58V18.05h-1.86V17a3,3,0,0,1-2.48,1.17,3.69,3.69,0,0,1-3.68-3.9,3.67,3.67,0,0,1,3.67-3.89,3,3,0,0,1,2.49,1.15v-5Zm-1.89,7.71a2.14,2.14,0,0,0-2.16-2.14,2.08,2.08,0,0,0-2.1,2.14,2.13,2.13,0,1,0,4.26,0Z" style="fill:#fff"/><path d="M159.27,7.94a1.17,1.17,0,0,1,1.21-1.14,1.14,1.14,0,1,1,0,2.27A1.17,1.17,0,0,1,159.27,7.94Zm.29,2.64h1.85v7.47h-1.85Z" style="fill:#fff"/><path d="M171.59,13.86v4.19h-1.86V14a1.59,1.59,0,0,0-1.55-1.8,1.78,1.78,0,0,0-1.9,1.91v3.9h-1.86V10.58h1.86v1.18a2.58,2.58,0,0,1,2.32-1.34C170.52,10.42,171.59,11.68,171.59,13.86Z" style="fill:#fff"/><path d="M182.07,10.58V17c0,3.36-1.63,4.81-4.19,4.81a3.87,3.87,0,0,1-3.54-2.19l1.54-.7a2.27,2.27,0,0,0,2,1.21c1.44,0,2.33-.83,2.33-3v-.11a3,3,0,0,1-2.48,1.15,3.69,3.69,0,0,1-3.68-3.9,3.67,3.67,0,0,1,3.67-3.89,3,3,0,0,1,2.49,1.13v-1Zm-1.89,3.71A2.14,2.14,0,0,0,178,12.15a2.08,2.08,0,0,0-2.1,2.14,2.13,2.13,0,1,0,4.26,0Z" style="fill:#fff"/><path d="M184.56,15.72h1.75a1.09,1.09,0,0,0,1.23,1c.74,0,1.22-.34,1.22-.82s-.32-.61-.88-.73l-1-.26c-1.68-.45-2.11-1.35-2.11-2.29,0-1.17,1.15-2.19,2.79-2.19,1.32,0,2.83.65,2.81,2.33H188.6a.91.91,0,0,0-1-.84c-.57,0-1,.32-1,.78s.37.61.8.7l1.2.33c1.68.43,2,1.48,2,2.17,0,1.52-1.52,2.32-3,2.32A2.76,2.76,0,0,1,184.56,15.72Z" style="fill:#fff"/></svg>